<svg version="1.1" id="Layer_1" xmlns="http://www.w3.org/2000/svg" xmlns:xlink="http://www.w3.org/1999/xlink" x="0px" y="0px"
	 width="100%" viewBox="0 0 656 640" enable-background="new 0 0 656 640" xml:space="preserve">
<path fill="#FFFFFF" opacity="1.000000" stroke="none" 
	d="
M256.761261,409.356567 
	C262.505829,427.178864 272.775970,441.691986 284.916260,455.187714 
	C320.700897,494.967804 366.092102,516.674866 417.844421,526.788086 
	C438.077820,530.741943 458.512238,531.636902 478.944427,530.478027 
	C502.676880,529.131958 525.688354,523.879272 547.334106,513.685120 
	C559.572876,507.921204 570.603760,500.535736 580.515137,491.054352 
	C595.034485,477.164795 607.958557,462.133636 617.289795,444.375702 
	C627.107544,425.691864 637.135437,407.096222 645.894470,387.867218 
	C646.685181,386.131378 647.094421,384.046967 649.450867,382.853760 
	C650.502686,386.742920 648.905029,390.195374 648.169250,393.558350 
	C639.894104,431.380341 625.210510,466.414764 602.920166,498.247528 
	C588.812805,518.394348 572.724304,536.759583 554.564087,553.224792 
	C530.232788,575.285217 502.958313,593.007935 473.124725,606.855347 
	C443.642487,620.539673 412.866974,629.875854 380.803101,634.856262 
	C368.837433,636.714783 356.789124,638.468750 344.613068,638.299255 
	C335.653748,638.174622 326.738983,638.857605 317.735229,638.587830 
	C286.098450,637.639771 255.254044,632.644897 225.113510,623.108521 
	C175.243988,607.329895 131.852386,580.818787 95.155525,543.627258 
	C52.880444,500.782349 25.794706,449.738373 13.611255,390.706055 
	C8.382072,365.369171 7.297682,339.769867 9.087596,314.205627 
	C12.043714,271.985260 23.636101,231.800156 40.964836,193.244003 
	C61.614902,147.297897 89.916161,106.635696 125.977264,71.512726 
	C149.659988,48.446129 176.161423,29.238361 206.901489,16.479597 
	C225.285431,8.849280 244.446152,4.345764 264.322113,2.483600 
	C292.297089,-0.137356 319.502411,2.692477 345.630768,13.177888 
	C372.030396,23.772173 393.275696,40.798725 405.915771,66.655411 
	C415.543335,86.349747 431.755951,96.892197 451.398621,103.762955 
	C457.053467,105.740952 462.702118,107.737335 468.341858,109.757988 
	C481.917480,114.621994 488.325928,123.707230 488.298004,138.107895 
	C488.249084,163.327072 475.284119,181.182831 455.286499,194.589355 
	C436.243073,207.356171 415.015320,211.158005 392.371979,208.584167 
	C382.878418,207.505020 373.640808,205.561584 364.750275,202.209167 
	C359.020142,200.048447 353.788208,201.922028 348.692322,203.632996 
	C325.095367,211.555817 305.574066,224.762695 292.654266,246.806503 
	C289.104950,252.862396 283.827881,257.864532 279.907013,263.827789 
	C268.942291,280.504181 258.680847,297.415009 253.119461,316.887604 
	C244.218781,348.052368 245.832672,378.658142 256.761261,409.356567 
M456.889191,144.746063 
	C452.649048,141.693848 450.530121,137.531281 450.718597,132.333939 
	C450.818848,129.570358 449.963379,127.852364 447.060852,127.422195 
	C441.088745,126.537102 435.486176,124.327141 429.878723,122.268112 
	C408.349976,114.362900 391.717102,101.185478 382.315460,79.479973 
	C376.494843,66.041992 367.625793,54.619534 355.703644,45.698963 
	C336.946777,31.664444 315.366150,26.605604 292.554871,25.349236 
	C279.365570,24.622814 266.676910,28.100744 253.762238,29.816740 
	C239.583679,31.700665 227.218109,37.556419 214.935135,43.458755 
	C204.282059,48.577888 194.071259,54.914173 184.062012,61.466591 
	C163.775482,74.746902 146.926224,91.744217 130.790268,109.464127 
	C113.044556,128.951813 98.169304,150.638153 84.506393,173.164062 
	C77.466644,184.770432 71.962921,197.080505 65.799400,210.737946 
	C68.732666,209.122543 70.354172,208.321182 71.883995,207.372055 
	C81.386444,201.476669 91.385765,196.564163 101.719055,192.329086 
	C137.586517,177.628845 175.169662,171.722702 213.673859,170.742599 
	C229.148712,170.348694 244.580826,171.237701 260.016022,172.532837 
	C274.090576,173.713852 288.083771,175.354492 302.043976,177.447800 
	C316.632477,179.635284 331.206451,182.738495 345.876190,183.372513 
	C367.608246,184.311768 389.412262,184.378906 411.174835,184.479691 
	C428.991486,184.562180 443.994049,176.693176 455.675415,163.101395 
	C459.450775,158.708557 462.202301,153.648087 463.443420,147.825546 
	C461.107574,146.787979 459.300385,145.985245 456.889191,144.746063 
M410.412689,553.339844 
	C403.276672,551.791504 396.095215,550.425476 389.013428,548.659546 
	C370.057190,543.932678 351.995972,536.830017 334.416962,528.306396 
	C309.872192,516.405334 288.001556,500.737030 269.042786,481.299408 
	C250.270508,462.052948 235.698532,439.964294 226.448639,414.398987 
	C217.364944,389.293030 214.353622,363.656219 217.985062,337.342621 
	C221.357910,312.902771 230.299988,290.508453 244.706055,270.375122 
	C247.604614,266.324249 250.370392,262.178345 253.197388,258.076233 
	C245.721359,260.301361 239.103455,263.356873 232.402267,266.217316 
	C212.642578,274.651794 193.008057,283.305084 174.998077,295.217316 
	C153.836441,309.214142 135.714691,325.919403 124.939110,349.526550 
	C115.952644,369.214111 111.477737,389.476318 115.861221,411.096008 
	C121.371071,438.271088 135.899933,460.725616 153.979904,480.823059 
	C192.729431,523.896606 240.669403,553.055786 295.246643,571.747009 
	C335.804657,585.637024 377.218140,592.899841 420.249756,588.730286 
	C438.819550,586.930908 456.654663,582.826477 473.162262,573.877075 
	C484.071106,567.962952 494.965240,562.010498 505.726654,553.084534 
	C473.305664,558.839294 442.282623,559.067566 410.412689,553.339844 
M158.806763,525.703247 
	C136.719681,506.150085 117.043259,484.538177 102.434105,458.722717 
	C83.669655,425.564575 78.515091,390.638123 89.922127,353.904388 
	C99.365829,323.493134 118.667053,300.054047 143.543015,281.048431 
	C164.353165,265.149170 187.769394,253.841507 212.271637,244.839462 
	C236.674957,235.873779 261.282379,227.408279 282.611511,211.914688 
	C286.541290,209.060074 290.991943,206.836853 294.305847,203.266907 
	C293.221069,201.706100 292.106445,201.488007 290.916962,201.387939 
	C275.047424,200.052780 259.200714,198.242401 243.303818,197.487640 
	C223.687119,196.556290 203.985489,196.943741 184.527542,199.588928 
	C160.618439,202.839233 137.065689,207.906418 114.687912,217.474716 
	C91.965210,227.190506 70.867889,239.243668 54.008247,257.758881 
	C51.286324,260.748108 48.598335,263.828491 47.528423,267.725464 
	C43.251717,283.302765 40.469578,299.148041 39.045349,315.263306 
	C38.104198,325.912415 38.798164,336.589661 38.095695,347.197113 
	C36.847557,366.044373 39.118542,384.598328 44.891315,402.237213 
	C51.484306,422.382385 60.065849,441.854675 70.146767,460.699310 
	C81.315742,481.577850 94.519753,500.742523 110.757217,517.919800 
	C138.605515,547.379822 171.192184,570.074646 208.228256,586.413513 
	C230.094101,596.059937 252.820755,602.803162 276.421967,606.823853 
	C290.541138,609.229187 304.778290,610.141541 318.980530,611.545532 
	C322.447235,611.888184 325.974670,611.620667 329.474182,611.626404 
	C332.734650,611.631775 335.995117,611.627563 339.255554,611.627563 
	C271.506714,598.974487 211.346451,571.240356 158.806763,525.703247 
z"/>
<path fill="#FFFFFF" opacity="1.000000" stroke="none" 
	d="
M442.226440,496.078461 
	C406.933411,488.832611 375.896240,473.638947 349.691711,449.663361 
	C328.501709,430.275787 312.895294,407.113129 309.187683,377.636108 
	C308.503174,372.193726 308.260986,366.638947 309.700684,361.181396 
	C312.439636,361.662140 312.579498,363.348572 313.188202,364.642792 
	C326.242737,392.398956 345.920654,413.916107 373.615021,427.447296 
	C397.852264,439.289429 423.586334,442.759460 450.351288,439.851685 
	C473.491516,437.337616 494.844299,430.249725 513.482483,416.054596 
	C525.192261,407.136261 533.711548,395.502228 540.885071,382.743622 
	C546.418274,372.902435 552.761902,363.422699 554.662781,352.028442 
	C557.661926,334.051483 560.169312,316.014557 558.174744,297.484924 
	C561.028687,297.149780 561.594360,299.368164 562.525452,300.896423 
	C584.366333,336.746460 580.468384,384.062225 554.100525,416.872406 
	C531.469971,445.032166 501.406128,459.226318 467.075195,466.334229 
	C464.315002,466.905731 461.516144,467.301056 458.725586,467.712494 
	C455.956726,468.120728 453.175598,468.445831 450.347595,469.208313 
	C470.597260,475.687164 491.265137,478.110626 512.633057,477.081390 
	C534.137451,476.045563 553.908447,469.649231 573.468506,459.943756 
	C573.704224,463.211365 572.021667,464.634369 570.635254,466.115448 
	C555.400208,482.391052 536.180054,491.371002 514.814026,496.221405 
	C502.138214,499.098969 489.247345,500.685089 476.236298,500.150574 
	C464.958710,499.687256 453.724670,498.473022 442.226440,496.078461 
z"/>
<path fill="#0DE7C3" opacity="1.000000" stroke="none" 
	d="
M334.353699,104.762177 
	C321.575928,107.075577 308.555756,101.739281 305.964233,89.404549 
	C305.515350,87.268082 303.883789,86.749901 302.064911,86.100395 
	C296.117859,83.976799 293.862701,81.448227 292.356140,75.519798 
	C296.152130,73.824394 300.401459,74.770950 304.339539,73.658211 
	C311.960266,71.504883 319.334412,68.248329 327.581085,68.617844 
	C337.455841,69.060303 345.297485,73.175369 350.638489,81.308365 
	C355.357574,88.494270 358.625458,96.580185 363.938354,104.260910 
	C354.044067,102.293571 344.334808,101.370636 334.353699,104.762177 
z"/>
</svg>